# Blender v2.68 (sub 0) OBJ File: 'crystal.blend'
# www.blender.org
mtllib crystal.mtl
o crystal_Cylinder
v -0.009332 0.066982 1.100736
v 0.090107 -0.006739 0.945108
v -0.047314 -0.052302 0.945108
v -0.132247 0.066982 0.945108
v -0.047314 0.186265 0.945108
v 0.090107 0.140702 0.945108
v 0.028649 -0.052303 0.693296
v -0.108772 -0.006740 0.693296
v -0.108772 0.140701 0.693296
v 0.028649 0.186264 0.693296
v 0.113582 0.066981 0.693297
v -0.009332 0.066980 0.537669
v -0.048595 0.184467 0.945108
v -0.009332 0.066982 1.100736
v -0.009332 0.066982 1.100736
v -0.009332 0.066982 1.100736
v -0.009332 0.066982 1.100736
v 0.090107 -0.006739 0.945108
v 0.090107 -0.006739 0.945108
v 0.090107 -0.006739 0.945108
v 0.090107 -0.006739 0.945108
v 0.090107 0.140702 0.945108
v 0.090107 0.140702 0.945108
v 0.090107 0.140702 0.945108
v 0.090107 0.140702 0.945108
v 0.028649 0.186264 0.693296
v 0.028649 0.186264 0.693296
v 0.028649 0.186264 0.693296
v 0.028649 0.186264 0.693296
v -0.047314 -0.052302 0.945108
v -0.047314 -0.052302 0.945108
v -0.047314 -0.052302 0.945108
v -0.047314 -0.052302 0.945108
v -0.132247 0.066982 0.945108
v -0.132247 0.066982 0.945108
v -0.132247 0.066982 0.945108
v -0.132247 0.066982 0.945108
v -0.048595 0.184467 0.945108
v -0.047314 0.186265 0.945108
v -0.047314 0.186265 0.945108
v -0.047314 0.186265 0.945108
v -0.047314 0.186265 0.945108
v 0.113582 0.066981 0.693297
v 0.113582 0.066981 0.693297
v 0.113582 0.066981 0.693297
v 0.113582 0.066981 0.693297
v 0.028649 -0.052303 0.693296
v 0.028649 -0.052303 0.693296
v 0.028649 -0.052303 0.693296
v 0.028649 -0.052303 0.693296
v -0.108772 -0.006740 0.693296
v -0.108772 -0.006740 0.693296
v -0.108772 -0.006740 0.693296
v -0.108772 -0.006740 0.693296
v -0.108772 0.140701 0.693296
v -0.108772 0.140701 0.693296
v -0.108772 0.140701 0.693296
v -0.108772 0.140701 0.693296
v -0.009332 0.066980 0.537669
v -0.009332 0.066980 0.537669
v -0.009332 0.066980 0.537669
v -0.009332 0.066980 0.537669
vt 0.551684 0.678117
vt 0.448806 0.463801
vt 0.331862 0.590369
vt 0.331862 0.765864
vt 0.622765 0.453029
vt 0.448806 0.892432
vt 0.448643 0.895469
vt 0.013402 0.999870
vt 0.301458 0.868849
vt 0.013402 0.811464
vt 0.301458 0.000130
vt 0.013402 0.042161
vt 0.301458 0.172532
vt 0.504343 0.010531
vt 0.403331 0.226449
vt 0.623155 0.138702
vt 0.331862 0.000130
vt 0.507355 0.439774
vt 0.331862 0.452769
vt 0.625263 0.313458
vt 0.301458 0.699082
vt 0.013402 0.616438
vt 0.301458 0.528695
vt 0.301458 0.350688
vt 0.019400 0.232097
vt 0.019400 0.418620
vt 0.013402 0.418459
vt 0.301458 0.353535
vt 0.622765 0.903205
vn 0.263771 -0.795556 0.545396
vn 0.842647 0.000000 0.538408
vn -0.685049 -0.487777 0.541063
vn -0.685049 0.487777 0.541063
vn 0.263771 0.795556 0.545396
vn 0.811029 -0.577471 -0.093448
vn 0.995666 0.000000 0.092807
vn 0.685049 -0.487777 -0.541063
vn -0.263771 -0.795556 -0.545396
vn -0.842647 0.000000 -0.538408
vn 0.685049 0.487777 -0.541063
vn -0.313273 -0.944914 -0.094485
vn -0.811029 -0.577471 0.093448
vn -0.263771 0.795556 -0.545396
vn 0.313273 0.944914 0.094485
vn 0.313273 -0.944914 0.094516
vn 0.811029 0.577471 -0.093448
vn -0.995666 0.000000 -0.092807
vn -0.313273 0.944914 -0.094516
vn -0.811029 0.577471 0.093417
vn -0.811029 0.577471 0.093448
usemtl None
s 1
f 1/1/1 3/2/1 2/3/1
f 18/3/2 22/4/2 14/1/2
f 15/1/3 4/5/3 30/2/3
f 16/1/4 5/6/4 13/7/4
f 17/1/5 23/4/5 39/6/5
f 11/8/6 19/9/6 7/10/6
f 20/11/7 45/12/7 24/13/7
f 48/14/8 12/15/8 44/16/8
f 8/17/9 59/15/9 47/14/9
f 9/18/10 60/15/10 51/19/10
f 43/16/11 61/15/11 26/20/11
f 49/10/12 31/21/12 52/22/12
f 53/22/13 32/21/13 34/23/13
f 27/20/14 62/15/14 55/18/14
f 40/24/15 6/13/15 10/25/15
f 21/9/16 33/21/16 50/10/16
f 28/25/17 25/13/17 46/12/17
f 54/22/18 36/23/18 56/26/18
f 58/27/19 41/24/19 29/25/19
f 42/24/20 57/26/21 38/28/21
f 38/28/21 57/26/21 37/23/21
f 35/29/4 16/1/4 13/7/4
